<svg id="svg" version="1.1" width="400" height="41.77777777777777" viewBox="0 0 400 41.77777777777777" xmlns="http://www.w3.org/2000/svg" xmlns:xlink="http://www.w3.org/1999/xlink" ><g id="svgg"><path id="path0" d="M4.667 12.649 C 4.667 13.664,4.724 13.986,4.917 14.060 C 5.101 14.131,5.167 14.423,5.167 15.173 C 5.167 15.855,5.084 16.273,4.917 16.440 C 4.659 16.698,4.521 28.094,4.768 28.736 C 4.904 29.090,5.741 29.076,6.165 28.713 C 6.483 28.440,6.500 28.227,6.500 24.496 C 6.500 22.233,6.567 20.499,6.659 20.408 C 6.746 20.321,6.839 19.689,6.867 19.003 L 6.917 17.756 7.375 18.251 C 7.627 18.524,7.833 18.846,7.833 18.969 C 7.833 19.235,8.238 19.667,8.488 19.667 C 8.586 19.667,8.667 19.771,8.667 19.899 C 8.667 20.027,8.779 20.174,8.917 20.227 C 9.054 20.280,9.167 20.447,9.167 20.599 C 9.167 20.751,9.542 21.238,10.000 21.682 C 10.458 22.126,10.833 22.567,10.833 22.662 C 10.833 22.756,10.946 22.833,11.083 22.833 C 11.221 22.833,11.333 22.946,11.333 23.083 C 11.333 23.221,11.414 23.333,11.512 23.333 C 11.743 23.333,12.167 23.757,12.167 23.988 C 12.167 24.086,12.279 24.167,12.417 24.167 C 12.554 24.167,12.667 24.279,12.667 24.417 C 12.667 24.554,12.747 24.667,12.845 24.667 C 13.076 24.667,13.500 25.091,13.500 25.321 C 13.500 25.420,13.579 25.500,13.675 25.500 C 13.771 25.500,14.015 25.669,14.217 25.875 C 14.641 26.307,15.123 26.634,15.542 26.774 C 15.702 26.828,15.833 26.976,15.833 27.103 C 15.833 27.230,15.947 27.333,16.086 27.333 C 16.405 27.333,17.042 27.685,17.217 27.958 C 17.290 28.073,17.601 28.167,17.907 28.167 C 18.249 28.167,18.501 28.263,18.560 28.417 C 18.628 28.593,18.902 28.667,19.485 28.667 C 19.941 28.667,20.360 28.742,20.417 28.833 C 20.473 28.925,20.698 29.000,20.917 29.000 C 21.135 29.000,21.360 28.925,21.417 28.833 C 21.473 28.742,21.779 28.667,22.096 28.667 C 22.848 28.667,24.167 27.374,24.167 26.637 C 24.167 25.730,24.634 25.500,26.480 25.500 C 27.740 25.500,28.175 25.441,28.333 25.250 C 28.492 25.059,28.927 25.000,30.187 25.000 L 31.833 25.000 31.833 27.250 L 31.833 29.500 32.500 29.500 L 33.167 29.500 33.167 27.097 L 33.167 24.694 35.278 24.639 C 36.778 24.599,37.409 24.523,37.459 24.375 C 37.505 24.235,37.906 24.167,38.681 24.167 L 39.833 24.167 39.833 24.833 C 39.833 25.200,39.908 25.500,40.000 25.500 C 40.097 25.500,40.167 26.052,40.167 26.821 C 40.167 28.374,40.353 28.667,41.345 28.667 L 42.000 28.667 42.000 27.083 L 42.000 25.500 44.396 25.500 C 46.323 25.500,46.833 25.451,47.000 25.250 C 47.159 25.059,47.594 25.000,48.854 25.000 L 50.500 25.000 50.500 27.250 L 50.500 29.500 51.167 29.500 L 51.833 29.500 51.833 27.097 L 51.833 24.694 53.945 24.639 C 55.445 24.599,56.076 24.523,56.125 24.375 C 56.172 24.235,56.573 24.167,57.347 24.167 L 58.500 24.167 58.500 24.833 C 58.500 25.200,58.575 25.500,58.667 25.500 C 58.764 25.500,58.833 26.052,58.833 26.821 C 58.833 28.374,59.020 28.667,60.012 28.667 L 60.667 28.667 60.667 26.995 C 60.667 25.662,60.616 25.303,60.417 25.227 C 60.247 25.162,60.167 24.896,60.167 24.399 L 60.167 23.667 61.083 23.667 C 62.019 23.667,62.194 23.798,61.750 24.167 C 61.555 24.329,61.500 24.787,61.500 26.259 C 61.500 27.711,61.557 28.200,61.750 28.393 C 61.887 28.530,62.000 28.723,62.000 28.821 C 62.000 28.920,62.112 29.000,62.250 29.000 C 62.387 29.000,62.500 29.081,62.500 29.179 C 62.500 29.523,63.474 30.333,63.886 30.333 C 64.112 30.333,64.341 30.446,64.394 30.583 C 64.453 30.739,64.708 30.833,65.068 30.833 C 65.387 30.833,65.693 30.908,65.750 31.000 C 65.891 31.228,75.333 31.228,75.333 31.000 C 75.333 30.906,75.806 30.833,76.417 30.833 C 77.269 30.833,77.500 30.780,77.500 30.583 C 77.500 30.395,77.703 30.333,78.323 30.333 C 78.776 30.333,79.193 30.258,79.250 30.167 C 79.307 30.075,79.568 30.000,79.831 30.000 C 80.094 30.000,80.422 29.887,80.560 29.750 C 80.697 29.612,80.993 29.500,81.218 29.500 C 81.442 29.500,81.719 29.388,81.833 29.250 C 82.101 28.927,82.816 28.927,82.940 29.250 C 82.992 29.387,83.131 29.500,83.247 29.500 C 83.364 29.500,83.553 29.613,83.667 29.750 C 83.876 30.002,84.750 30.085,85.236 29.899 C 85.713 29.716,85.593 28.360,85.083 28.167 C 84.574 27.973,84.536 27.667,85.023 27.667 C 85.218 27.667,85.552 27.479,85.765 27.250 C 85.977 27.021,86.269 26.833,86.414 26.833 C 86.559 26.833,86.720 26.721,86.773 26.583 C 86.826 26.446,86.942 26.333,87.031 26.333 C 87.251 26.333,88.167 25.403,88.167 25.179 C 88.167 25.081,88.279 25.000,88.417 25.000 C 88.554 25.000,88.667 24.887,88.667 24.750 C 88.667 24.613,88.740 24.500,88.830 24.500 C 88.920 24.500,89.041 24.313,89.098 24.083 C 89.156 23.854,89.270 23.667,89.351 23.667 C 89.433 23.667,89.500 23.367,89.500 23.000 C 89.500 22.519,89.569 22.333,89.750 22.333 C 89.956 22.333,90.000 22.030,90.000 20.601 C 90.000 19.215,89.950 18.850,89.750 18.773 C 89.602 18.716,89.500 18.466,89.500 18.160 C 89.500 17.876,89.406 17.538,89.292 17.411 C 88.802 16.864,88.667 16.671,88.667 16.518 C 88.667 16.429,88.517 16.308,88.333 16.250 C 88.150 16.192,88.000 16.074,88.000 15.989 C 88.000 15.903,87.850 15.833,87.667 15.833 C 87.481 15.833,87.333 15.722,87.333 15.583 C 87.333 15.431,87.178 15.333,86.934 15.333 C 86.715 15.333,86.492 15.221,86.440 15.083 C 86.380 14.928,86.126 14.833,85.765 14.833 C 85.447 14.833,85.140 14.758,85.083 14.667 C 85.019 14.562,83.276 14.500,80.407 14.500 C 77.469 14.500,75.833 14.560,75.833 14.667 C 75.833 14.758,75.426 14.833,74.929 14.833 C 74.347 14.833,73.935 14.923,73.774 15.083 C 73.636 15.221,73.254 15.333,72.923 15.333 C 72.543 15.333,72.288 15.425,72.227 15.583 C 72.173 15.724,71.938 15.828,71.691 15.820 C 71.426 15.812,71.349 15.768,71.497 15.710 C 71.633 15.657,71.837 15.531,71.950 15.432 C 72.411 15.024,72.597 14.895,72.875 14.788 C 73.035 14.727,73.167 14.600,73.167 14.505 C 73.167 14.411,73.317 14.333,73.500 14.333 C 73.683 14.333,73.833 14.258,73.833 14.167 C 73.833 14.075,73.948 14.000,74.089 14.000 C 74.229 14.000,74.387 13.887,74.440 13.750 C 74.492 13.612,74.715 13.500,74.934 13.500 C 75.178 13.500,75.333 13.403,75.333 13.250 C 75.333 13.072,75.515 13.000,75.967 13.000 C 77.036 13.000,77.497 12.686,77.499 11.958 L 77.500 11.333 76.078 11.333 C 74.968 11.333,74.635 11.388,74.560 11.583 C 74.508 11.721,74.348 11.833,74.205 11.833 C 73.844 11.833,72.667 12.368,72.667 12.532 C 72.667 12.606,72.554 12.667,72.417 12.667 C 72.279 12.667,72.167 12.779,72.167 12.917 C 72.167 13.059,72.017 13.167,71.821 13.167 C 71.630 13.167,71.258 13.373,70.992 13.625 C 70.351 14.235,70.167 14.374,69.625 14.653 C 69.373 14.783,69.167 14.989,69.167 15.111 C 69.167 15.234,69.054 15.333,68.917 15.333 C 68.779 15.333,68.667 15.446,68.667 15.583 C 68.667 15.721,68.589 15.833,68.493 15.833 C 68.307 15.833,68.098 15.989,67.318 16.708 C 67.045 16.960,66.787 17.167,66.744 17.167 C 66.517 17.167,65.167 18.869,65.167 19.156 C 65.167 19.253,65.054 19.333,64.917 19.333 C 64.779 19.333,64.667 19.446,64.667 19.583 C 64.667 19.721,64.586 19.833,64.488 19.833 C 64.206 19.833,63.598 20.597,63.392 21.208 C 63.308 21.461,63.064 21.500,61.564 21.500 L 59.833 21.500 59.833 20.699 C 59.833 20.252,59.725 19.754,59.589 19.574 C 59.454 19.396,59.342 18.891,59.339 18.453 C 59.335 17.902,59.256 17.627,59.083 17.560 C 58.908 17.493,58.833 17.220,58.833 16.649 C 58.833 16.200,58.758 15.833,58.667 15.833 C 58.575 15.833,58.500 15.655,58.500 15.437 C 58.500 15.219,58.387 14.947,58.250 14.833 C 58.113 14.719,58.000 14.485,58.000 14.313 C 58.000 14.045,57.869 14.000,57.083 14.000 L 56.167 14.000 56.167 14.762 C 56.167 15.217,56.267 15.625,56.417 15.774 C 56.554 15.911,56.667 16.243,56.667 16.512 C 56.667 16.835,56.751 17.000,56.917 17.000 C 57.113 17.000,57.167 17.231,57.167 18.083 C 57.167 18.679,57.233 19.167,57.314 19.167 C 57.395 19.167,57.493 19.668,57.532 20.281 C 57.574 20.938,57.685 21.423,57.802 21.462 C 58.497 21.694,57.979 22.333,57.095 22.333 C 56.513 22.333,56.101 22.423,55.940 22.583 C 55.750 22.774,55.273 22.833,53.934 22.833 L 52.178 22.833 52.108 18.792 C 52.032 14.446,51.857 12.480,51.535 12.373 C 51.424 12.336,51.333 12.199,51.333 12.069 C 51.333 11.894,51.096 11.833,50.417 11.833 L 49.500 11.833 49.500 12.655 C 49.500 13.142,49.596 13.572,49.736 13.712 C 49.924 13.900,49.984 14.766,50.028 17.883 C 50.068 20.745,50.140 21.874,50.292 22.025 C 50.406 22.140,50.500 22.481,50.500 22.783 L 50.500 23.333 48.083 23.333 C 46.583 23.333,45.667 23.397,45.667 23.500 C 45.667 23.592,45.329 23.667,44.917 23.667 C 44.103 23.667,43.880 23.389,44.625 23.303 C 45.052 23.254,45.087 23.191,45.134 22.375 L 45.184 21.500 43.175 21.500 L 41.167 21.500 41.167 20.699 C 41.167 20.252,41.058 19.754,40.922 19.574 C 40.787 19.396,40.675 18.891,40.672 18.453 C 40.668 17.902,40.590 17.627,40.417 17.560 C 40.242 17.493,40.167 17.220,40.167 16.649 C 40.167 16.200,40.092 15.833,40.000 15.833 C 39.908 15.833,39.833 15.655,39.833 15.437 C 39.833 15.219,39.721 14.947,39.583 14.833 C 39.446 14.719,39.333 14.485,39.333 14.313 C 39.333 14.045,39.202 14.000,38.417 14.000 L 37.500 14.000 37.500 14.762 C 37.500 15.217,37.601 15.625,37.750 15.774 C 37.888 15.911,38.000 16.243,38.000 16.512 C 38.000 16.835,38.085 17.000,38.250 17.000 C 38.447 17.000,38.500 17.231,38.500 18.083 C 38.500 18.679,38.566 19.167,38.647 19.167 C 38.728 19.167,38.826 19.668,38.865 20.281 C 38.907 20.938,39.018 21.423,39.135 21.462 C 39.831 21.694,39.312 22.333,38.429 22.333 C 37.847 22.333,37.435 22.423,37.274 22.583 C 37.083 22.774,36.606 22.833,35.268 22.833 L 33.511 22.833 33.441 18.792 C 33.366 14.446,33.190 12.480,32.869 12.373 C 32.758 12.336,32.667 12.199,32.667 12.069 C 32.667 11.894,32.430 11.833,31.750 11.833 L 30.833 11.833 30.833 12.655 C 30.833 13.142,30.930 13.572,31.070 13.712 C 31.257 13.900,31.317 14.766,31.361 17.883 C 31.402 20.745,31.473 21.874,31.625 22.025 C 31.740 22.140,31.833 22.481,31.833 22.783 L 31.833 23.333 29.417 23.333 C 27.917 23.333,27.000 23.397,27.000 23.500 C 27.000 23.592,26.569 23.667,26.042 23.667 L 25.083 23.667 25.140 21.355 C 25.187 19.484,25.147 18.945,24.932 18.530 C 24.769 18.214,24.667 17.598,24.667 16.925 C 24.667 16.066,24.613 15.833,24.417 15.833 C 24.232 15.833,24.167 15.640,24.167 15.093 C 24.167 14.686,24.092 14.307,24.000 14.250 C 23.908 14.193,23.833 14.007,23.833 13.835 C 23.833 13.664,23.721 13.411,23.583 13.274 C 23.446 13.136,23.333 12.943,23.333 12.845 C 23.333 12.747,23.226 12.667,23.095 12.667 C 22.964 12.667,22.833 12.498,22.803 12.292 C 22.758 11.972,22.634 11.909,21.958 11.866 L 21.167 11.815 21.167 12.658 C 21.167 13.121,21.242 13.500,21.333 13.500 C 21.425 13.500,21.500 13.652,21.500 13.839 C 21.500 14.025,21.613 14.220,21.750 14.273 C 21.893 14.328,22.000 14.576,22.000 14.851 C 22.000 15.169,22.085 15.333,22.250 15.333 C 22.439 15.333,22.500 15.537,22.500 16.167 C 22.500 16.625,22.566 17.000,22.647 17.000 C 22.728 17.000,22.825 17.764,22.863 18.697 C 22.908 19.821,22.999 20.416,23.132 20.461 C 23.391 20.547,23.394 21.539,23.137 21.796 C 23.029 21.904,22.908 22.651,22.869 23.455 C 22.829 24.259,22.730 24.988,22.649 25.075 C 22.567 25.162,22.500 25.446,22.500 25.705 C 22.500 25.971,22.391 26.219,22.250 26.273 C 22.113 26.326,22.000 26.473,22.000 26.601 C 22.000 26.729,21.896 26.833,21.768 26.833 C 21.640 26.833,21.492 26.946,21.440 27.083 C 21.387 27.221,21.199 27.333,21.023 27.333 C 20.847 27.333,20.659 27.221,20.606 27.083 C 20.541 26.912,20.272 26.833,19.750 26.833 C 19.228 26.833,18.959 26.755,18.894 26.583 C 18.841 26.446,18.618 26.333,18.399 26.333 C 18.179 26.333,18.000 26.258,18.000 26.167 C 18.000 26.075,17.896 26.000,17.768 26.000 C 17.640 26.000,17.492 25.887,17.440 25.750 C 17.387 25.613,17.225 25.500,17.081 25.500 C 16.936 25.500,16.644 25.313,16.431 25.083 C 16.219 24.854,15.960 24.667,15.856 24.667 C 15.752 24.667,15.667 24.593,15.667 24.503 C 15.667 24.413,15.479 24.293,15.250 24.235 C 15.021 24.178,14.833 24.058,14.833 23.970 C 14.833 23.754,14.401 23.333,14.179 23.333 C 14.080 23.333,14.000 23.221,14.000 23.083 C 14.000 22.946,13.887 22.833,13.750 22.833 C 13.612 22.833,13.500 22.753,13.500 22.655 C 13.500 22.424,13.076 22.000,12.845 22.000 C 12.747 22.000,12.667 21.887,12.667 21.750 C 12.667 21.613,12.554 21.500,12.417 21.500 C 12.279 21.500,12.167 21.426,12.167 21.336 C 12.167 21.052,11.260 19.846,11.042 19.840 C 10.927 19.836,10.833 19.748,10.833 19.644 C 10.833 19.540,10.646 19.281,10.417 19.069 C 10.188 18.856,10.000 18.529,10.000 18.341 C 10.000 18.149,9.891 18.000,9.750 18.000 C 9.612 18.000,9.500 17.887,9.500 17.750 C 9.500 17.612,9.437 17.500,9.360 17.500 C 9.283 17.500,9.077 17.201,8.902 16.835 C 8.727 16.470,8.490 16.170,8.375 16.169 C 8.260 16.168,8.167 16.007,8.167 15.811 C 8.167 15.615,7.979 15.281,7.750 15.069 C 7.521 14.856,7.333 14.529,7.333 14.341 C 7.333 14.149,7.224 14.000,7.083 14.000 C 6.895 14.000,6.833 13.797,6.833 13.177 C 6.833 12.724,6.758 12.307,6.667 12.250 C 6.575 12.193,6.500 11.964,6.500 11.740 C 6.500 11.358,6.444 11.333,5.583 11.333 L 4.667 11.333 4.667 12.649 M84.273 16.417 C 84.332 16.571,84.586 16.667,84.934 16.667 C 85.246 16.667,85.500 16.742,85.500 16.833 C 85.500 16.925,85.725 17.000,86.000 17.000 C 86.275 17.000,86.500 17.081,86.500 17.179 C 86.500 17.278,86.706 17.576,86.958 17.841 C 87.748 18.671,87.833 18.808,87.833 19.243 C 87.833 19.476,87.908 19.667,88.000 19.667 C 88.092 19.667,88.167 20.037,88.167 20.490 C 88.167 20.943,88.092 21.360,88.000 21.417 C 87.908 21.473,87.833 21.705,87.833 21.932 C 87.833 22.158,87.721 22.387,87.583 22.440 C 87.446 22.492,87.333 22.715,87.333 22.934 C 87.333 23.154,87.253 23.333,87.155 23.333 C 86.924 23.333,86.500 23.757,86.500 23.988 C 86.500 24.086,86.388 24.167,86.250 24.167 C 86.112 24.167,86.000 24.279,86.000 24.417 C 86.000 24.554,85.922 24.667,85.826 24.667 C 85.730 24.667,85.450 24.854,85.203 25.083 C 84.956 25.313,84.657 25.500,84.538 25.500 C 84.420 25.500,84.280 25.613,84.227 25.750 C 84.174 25.887,83.952 26.000,83.732 26.000 C 83.513 26.000,83.333 26.075,83.333 26.167 C 83.333 26.258,83.221 26.333,83.083 26.333 C 82.928 26.333,82.833 26.176,82.833 25.917 C 82.833 25.688,82.766 25.500,82.685 25.500 C 82.603 25.500,82.489 25.313,82.432 25.083 C 82.374 24.854,82.253 24.667,82.163 24.667 C 82.074 24.667,82.000 24.554,82.000 24.417 C 82.000 24.236,81.815 24.167,81.333 24.167 C 80.875 24.167,80.667 24.239,80.667 24.399 C 80.667 24.527,80.554 24.674,80.417 24.727 C 80.279 24.780,80.167 24.970,80.167 25.150 C 80.167 25.329,80.279 25.589,80.417 25.726 C 80.554 25.864,80.667 26.134,80.667 26.327 C 80.667 26.519,80.779 26.720,80.917 26.773 C 81.525 27.007,80.758 27.667,79.878 27.667 C 79.664 27.667,79.446 27.779,79.394 27.917 C 79.328 28.087,79.062 28.167,78.560 28.167 C 78.059 28.167,77.792 28.247,77.727 28.417 C 77.658 28.596,77.377 28.667,76.732 28.667 C 76.238 28.667,75.833 28.733,75.833 28.815 C 75.833 28.897,75.258 28.993,74.554 29.028 C 73.745 29.069,73.250 29.168,73.207 29.296 C 73.097 29.624,67.942 29.581,67.667 29.250 C 67.540 29.097,67.175 29.000,66.730 29.000 C 66.328 29.000,66.000 28.925,66.000 28.833 C 66.000 28.742,65.735 28.667,65.411 28.667 C 65.042 28.667,64.787 28.574,64.727 28.417 C 64.674 28.279,64.527 28.167,64.399 28.167 C 64.271 28.167,64.167 28.086,64.167 27.988 C 64.167 27.757,63.743 27.333,63.512 27.333 C 63.222 27.333,63.285 25.191,63.583 24.893 C 63.721 24.755,63.833 24.498,63.833 24.321 C 63.833 24.145,63.908 24.000,64.000 24.000 C 64.092 24.000,64.167 23.848,64.167 23.661 C 64.167 23.475,64.279 23.280,64.417 23.227 C 64.554 23.174,64.667 22.952,64.667 22.732 C 64.667 22.513,64.760 22.332,64.875 22.331 C 65.053 22.330,65.778 21.410,65.982 20.928 C 66.018 20.843,66.225 20.609,66.441 20.409 C 66.657 20.209,66.833 19.960,66.833 19.856 C 66.833 19.752,66.914 19.667,67.013 19.667 C 67.246 19.667,68.167 18.746,68.167 18.513 C 68.167 18.414,68.247 18.333,68.345 18.333 C 68.443 18.333,68.650 18.207,68.804 18.053 C 69.066 17.790,69.086 17.875,69.131 19.386 L 69.179 21.000 70.006 21.000 L 70.833 21.000 70.833 19.667 C 70.833 18.783,70.897 18.333,71.023 18.333 C 71.127 18.333,71.386 18.146,71.598 17.917 C 71.841 17.654,72.165 17.500,72.474 17.500 C 72.756 17.500,73.005 17.394,73.060 17.250 C 73.123 17.086,73.384 17.000,73.818 17.000 C 74.182 17.000,74.527 16.925,74.583 16.833 C 74.640 16.742,75.097 16.667,75.598 16.667 C 76.255 16.667,76.537 16.597,76.606 16.417 C 76.688 16.205,77.271 16.167,80.440 16.167 C 83.608 16.167,84.192 16.205,84.273 16.417 " stroke="none" fill="#040404" fill-rule="evenodd"></path><path id="path1" d="" stroke="none" fill="#080404" fill-rule="evenodd"></path><path id="path2" d="" stroke="none" fill="#080404" fill-rule="evenodd"></path><path id="path3" d="" stroke="none" fill="#080404" fill-rule="evenodd"></path><path id="path4" d="" stroke="none" fill="#080404" fill-rule="evenodd"></path></g></svg>